<?xml version="1.0" encoding="UTF-8" standalone="no"?>
<!DOCTYPE svg PUBLIC "-//W3C//DTD SVG 1.1//EN" "http://www.w3.org/Graphics/SVG/1.1/DTD/svg11.dtd">
<svg width="100%" height="100%" viewBox="0 0 450 400" version="1.1" xmlns="http://www.w3.org/2000/svg" xmlns:xlink="http://www.w3.org/1999/xlink" xml:space="preserve" xmlns:serif="http://www.serif.com/" style="fill-rule:evenodd;clip-rule:evenodd;stroke-linecap:round;stroke-linejoin:round;">
    <g transform="matrix(1,0,0,1,-25,-50)">
        <path d="M32.5,442.5L467.5,442.5" style="fill:none;fill-rule:nonzero;stroke:black;stroke-width:12px;"/>
        <path d="M382.5,190L382.5,442.5L117.5,442.5L117.5,190C117.5,116.822 176.822,57.5 250,57.5C323.178,57.5 382.5,116.822 382.5,190ZM370.5,430.5L370.5,190C370.5,123.449 316.551,69.5 250,69.5C183.449,69.5 129.5,123.449 129.5,190L129.5,430.5L370.5,430.5Z"/>
        <path d="M315,173.043L185,173.043" style="fill:none;fill-rule:nonzero;stroke:black;stroke-width:12px;"/>
        <path d="M253,96.957L253,326.957" style="fill:none;fill-rule:nonzero;stroke:black;stroke-width:12px;"/>
        <g transform="matrix(0.436997,-0.899463,0.867277,0.497826,387,447.203)">
            <path d="M7.5,-7.5L152.79,-7.5" style="fill:none;fill-rule:nonzero;stroke:black;stroke-width:12.44px;"/>
        </g>
        <g transform="matrix(0.787512,-0.6163,0.552227,0.833694,390,445.374)">
            <path d="M7.5,-7.5L74.941,-7.5" style="fill:none;fill-rule:nonzero;stroke:black;stroke-width:12.5px;"/>
        </g>
        <g transform="matrix(-0.787512,-0.6163,-0.552227,0.833694,109.923,447.548)">
            <path d="M7.5,-7.5L74.941,-7.5" style="fill:none;fill-rule:nonzero;stroke:black;stroke-width:12.5px;"/>
        </g>
        <g transform="matrix(-0.436997,-0.899463,-0.867277,0.497826,114.93,447.435)">
            <path d="M7.5,-7.5L152.79,-6.48" style="fill:none;fill-rule:nonzero;stroke:black;stroke-width:12.44px;"/>
        </g>
    </g>
</svg>
